HIERARCHY
ROOT pelvis
{
	OFFSET 0.000000 0.000000 0.000000
	CHANNELS 6 Xposition Yposition Zposition Zrotation Xrotation Yrotation
	JOINT lfemur
	{
		OFFSET 11.446000 0.000000 0.000000
		CHANNELS 3 Zrotation Xrotation Yrotation
		JOINT ltibia
		{
			OFFSET 0.000000 -42.030400 0.000000
			CHANNELS 3 Zrotation Xrotation Yrotation
			JOINT lfoot
			{
				OFFSET 0.000000 -39.930200 0.000000
				CHANNELS 3 Zrotation Xrotation Yrotation
				JOINT ltoes
				{
					OFFSET 0.000000 0.000000 11.775800
					CHANNELS 3 Zrotation Xrotation Yrotation
					End Site
					{
					    OFFSET 0.000000 0.000000 5.000000
					}
				}
			}
		}
	}
	JOINT rfemur
	{
		OFFSET -11.446000 0.000000 0.000000
		CHANNELS 3 Zrotation Xrotation Yrotation
		JOINT rtibia
		{
			OFFSET 0.000000 -42.030400 0.000000
			CHANNELS 3 Zrotation Xrotation Yrotation
			JOINT rfoot
			{
				OFFSET 0.000000 -39.930200 0.000000
				CHANNELS 3 Zrotation Xrotation Yrotation
				JOINT rtoes
				{
					OFFSET 0.000000 0.000000 11.775800
					CHANNELS 3 Zrotation Xrotation Yrotation
					End Site
					{
					    OFFSET 0.000000 0.000000 5.000000
					}
				}
			}
		}
	}
	JOINT thorax
	{
		OFFSET 0.000000 11.255600 -5.000000
		CHANNELS 3 Zrotation Xrotation Yrotation
		JOINT head
		{
			OFFSET 0.000000 43.799300 0.000000
			CHANNELS 3 Zrotation Xrotation Yrotation
			End Site
			{
			    OFFSET 0.000000 5.000000 0.000000
			}
		}
		JOINT lclavicle
		{
			OFFSET 0.000000 39.863000 0.000000
			CHANNELS 3 Zrotation Xrotation Yrotation
			JOINT lhumerus
			{
				OFFSET 17.380600 4.958300 0.000000
				CHANNELS 3 Zrotation Xrotation Yrotation
				JOINT lradius
				{
					OFFSET 0.000000 -27.561300 0.000000
					CHANNELS 3 Zrotation Xrotation Yrotation
					JOINT lhand
					{
						OFFSET 0.000000 -26.933000 0.000000
						CHANNELS 3 Zrotation Xrotation Yrotation
						End Site
						{
						    OFFSET 0.000000 -5.000000 0.000000
						}
					}
				}
			}
		}
		JOINT rclavicle
		{
			OFFSET 0.000000 39.863000 0.000000
			CHANNELS 3 Zrotation Xrotation Yrotation
			JOINT rhumerus
			{
				OFFSET -17.380600 4.958300 0.000000
				CHANNELS 3 Zrotation Xrotation Yrotation
				JOINT rradius
				{
					OFFSET 0.000000 -27.561300 0.000000
					CHANNELS 3 Zrotation Xrotation Yrotation
					JOINT rhand
					{
						OFFSET 0.000000 -26.933000 0.000000
						CHANNELS 3 Zrotation Xrotation Yrotation
						End Site
						{
						    OFFSET 0.000000 -5.000000 0.000000
						}
					}
				}
			}
		}
	}
}
MOTION
Frames:	7
Frame Time:	0.0333333
5.69956 82.4139 104.545 7.00222 -5.37863 5.71142 -5.8845 8.35404 -3.72173 0.25931 37.3859 -0.415631 0.82527 -14.5631 -2.49853 1.73914e-017 -5 1.99544e-016 -7.23166 -26.7386 3.05885 -0.10638 26.9878 0.252261 3.66854 13.3991 -8.31239 -4.0381e-018 -5 2.4943e-017 -7.71843 8.46043 -5.0871 6.20275 -15.775 -8.39196 3.10601e-016 -3.97569e-016 2.48481e-017 22.3554 -16.9884 -36.217 36.4458 -41.6701 21.2331 -0.0515514 0.907558 6.47129 3.10601e-016 -3.97569e-016 2.48481e-017 -3.51809 7.98351 6.86116 -14.993 -22.5613 -6.331 0.0978279 -1.24359 8.88662 
4.64898 82.3123 108.962 4.88155 -6.34442 5.96657 -2.46348 9.35892 -3.94669 0.347232 42.3174 -0.375238 0.797932 -13.5235 -4.27795 6.95656e-017 -5 7.98176e-016 -4.00723 -26.9506 0.46401 -0.161541 31.6731 0.245436 0.106248 14.051 -3.60916 -2.98267e-017 -5 7.98176e-016 -5.04656 9.20238 -5.3494 5.6717 -14.8265 -7.90357 3.38288e-016 3.97569e-016 1.20358e-017 22.8479 -16.788 -36.6726 35.8301 -41.2996 20.7533 -0.000601221 -0.0723652 -0.515045 3.38288e-016 3.97569e-016 1.20358e-017 -4.3109 8.57293 4.15955 -13.5385 -20.7115 -5.51645 0.198626 -1.77199 12.7168 
3.66675 82.3743 112.751 2.27888 -7.2246 5.01018 0.742008 7.34365 -3.50751 0.573078 51.2241 -0.24953 2.21128 -9.74323 -6.41824 -2.58438e-016 -5 1.59635e-015 0.293341 -25.3902 1.34457 -0.212102 35.1021 0.35175 0.0515902 10.5121 -4.91458 6.46095e-017 -5 -3.99088e-016 -1.67472 10.3293 -4.98613 4.46761 -14.9417 -7.2884 3.10601e-017 7.95139e-016 -0 21.2317 -16.3004 -34.3547 33.1447 -39.582 18.6869 -0.0142561 -0.471582 -3.35678 3.10601e-017 7.95139e-016 -0 -5.38963 7.6351 -0.851943 -11.9584 -18.6127 -4.67216 0.365618 -2.39475 17.31 
2.70145 82.8565 116.159 0.519844 -7.14279 5.83465 3.10777 2.54145 -3.83651 0.930654 59.6412 -0.827616 5.00029 -3.20535 -8.84172 7.95139e-016 -5 -0 2.9227 -23.3335 1.06534 -0.219388 35.4654 0.369026 -0.557327 8.19839 -6.31516 4.96962e-017 -5 -0 0.190623 10.3562 -5.90597 4.61006 -13.9434 -7.27968 3.10601e-018 0 1.2424e-017 18.8843 -14.7486 -30.5088 29.42 -36.9037 15.8986 -0.0110815 -0.373207 -2.65681 3.10601e-018 0 1.2424e-017 -5.04688 6.64486 -7.59213 -11.3873 -17.8319 -4.37822 0.485457 -2.74976 19.981 
2.19852 83.5255 119.141 -0.246819 -6.95313 7.09726 3.1922 -2.49965 -4.82906 1.36001 65.6217 -1.52034 1.22906 -1.75966 -2.47634 -2.37915e-016 -5 -4.48974e-016 4.11724 -21.007 0.980144 -0.210521 35.0982 0.318881 -0.530154 6.1835 -7.98332 -5.21742e-017 -5 -5.98632e-016 1.23165 10.343 -6.58798 4.86078 -12.751 -7.66671 2.48481e-017 7.95139e-016 -0 16.2371 -13.8515 -26.2281 24.8522 -33.0948 12.6277 -0.00111956 0.0391938 0.275872 2.48481e-017 7.95139e-016 -0 -4.46041 5.71576 -11.5251 -12.1896 -18.9268 -4.79305 0.401375 -2.50626 18.1453 
1.90507 84.4414 121.688 -0.583653 -6.39405 7.40573 2.27193 -7.13005 -4.59288 1.67839 68.7668 -1.78832 1.00002 -4.5813 2.52929 1.12314e-015 -5 -7.98176e-016 4.84246 -18.5584 1.15666 -0.181205 33.0036 0.256672 -0.72106 5.49805 -8.79291 5.71528e-017 -5 -1.99544e-016 1.83822 10.0813 -5.99478 4.87361 -11.7548 -8.68866 0 0 -0 14.1833 -14.1121 -23.1908 19.684 -27.9957 9.1746 -0.0192896 0.538566 3.83066 0 0 -0 -4.44411 4.74016 -10.087 -13.8035 -21.0559 -5.66232 0.155935 -1.57091 11.2524 
1.48896 85.1769 124.061 -1.09911 -5.7234 6.70196 2.226 -12.1185 -3.00114 1.77401 69.5884 -1.87514 1.14509 -6.98148 2.59394 5.36701e-016 -5 1.59635e-015 6.17169 -16.6125 2.6017 -0.15695 31.0467 0.201787 -0.940037 5.31796 -9.63453 -3.35438e-017 -5 -9.9772e-017 2.42375 9.96008 -4.89312 4.98376 -10.7721 -8.92598 -7.45443e-017 -7.95139e-016 -3.97569e-016 12.9348 -13.4909 -20.1279 15.9444 -23.728 6.88133 -0.0095527 0.365536 2.59968 -7.45443e-017 -7.95139e-016 -3.97569e-016 -4.83042 3.05753 -5.72272 -15.7423 -23.4849 -6.76395 0.0306753 -0.688274 4.90499 
